<svg xmlns="http://www.w3.org/2000/svg" width="354" height="66" shape-rendering="geometricPrecision"
    text-rendering="geometricPrecision" image-rendering="optimizeQuality" fill-rule="evenodd" clip-rule="evenodd"
    viewBox="0 0 57.745 10.766">
    <path fill="#305DB8"
        d="M11.019 2.673c1.024-.056 1.924.492 1.977 1.283.058.862-.898 1.617-2.088 1.614-.139 0-.272-.011-.399-.031.063.035.124.073.183.115.899.632 1.024 1.853.163 2.701-.9.886-2.382.896-3.194.069a1.795 1.795 0 01-.234-.297c.009.074.014.15.014.227.001 1.18-1.032 2.312-2.266 2.406-1.194.091-1.952-.845-1.749-1.978.023-.128.057-.253.102-.375-.05.064-.104.127-.161.189-.837.909-2.048 1.136-2.616.511-.522-.575-.261-1.636.513-2.377a3.07 3.07 0 01.28-.236 1.984 1.984 0 01-.188.065c-.891.264-1.48-.156-1.334-.88.135-.669.86-1.368 1.634-1.609a1.91 1.91 0 01.27-.064.952.952 0 01-.122-.034c-.538-.189-.518-.788-.005-1.325.491-.512 1.291-.814 1.83-.69a.81.81 0 01.178.062.543.543 0 01-.036-.085c-.127-.411.318-.961.984-1.25C5.42.396 6.118.447 6.328.819a.472.472 0 01.053.147.82.82 0 01.051-.103C6.708.38 7.466.004 8.164 0c.726-.004 1.168.395.947.918a.992.992 0 01-.107.189c.044-.031.089-.06.138-.088.687-.402 1.662-.445 2.222-.078.604.397.515 1.123-.258 1.6a2.374 2.374 0 01-.292.151c.067-.009.136-.015.205-.019zM9.801 5.302c-.497-.277-.778-.737-.711-1.235.069-.504.484-.944 1.054-1.19-.563.074-1.117-.043-1.441-.341-.327-.302-.328-.712-.07-1.072-.38.267-.909.435-1.407.41-.516-.026-.836-.254-.89-.56-.126.31-.467.634-.945.843-.518.227-1.025.245-1.336.09.136.247.065.607-.247.974a2.414 2.414 0 01-1.385.787c.383.077.63.343.617.754-.016.476-.372 1.013-.882 1.391.535-.209 1.076-.202 1.443.065.424.308.53.893.31 1.505.406-.519 1.006-.892 1.635-.974.697-.092 1.315.186 1.644.703-.066-.575.175-1.179.678-1.611a2.439 2.439 0 011.933-.539zm-1.008.672a.368.368 0 01.12.416l.353.29.498-.14a.534.534 0 01.377-.345c.288-.082.597.045.693.289.098.25-.067.525-.369.609a.619.619 0 01-.551-.103l-.511.143-.14.463c.136.12.199.307.143.497-.084.288-.406.468-.711.396-.3-.071-.462-.357-.368-.634a.585.585 0 01.403-.369l.149-.455-.348-.299a.534.534 0 01-.494-.093c-.186-.164-.165-.441.043-.621.205-.177.521-.198.713-.044zm-2.82 1.449a.594.594 0 01-.282.44l-.038.47.413.197a.553.553 0 01.531-.056c.253.117.335.435.175.713-.162.282-.507.407-.763.275a.453.453 0 01-.238-.449l-.415-.209-.457.296a.705.705 0 01-.317.495c-.272.177-.579.115-.682-.133-.101-.241.032-.568.292-.734.173-.11.363-.124.503-.053l.447-.286.049-.468a.355.355 0 01-.201-.378c.029-.252.265-.478.53-.512.266-.034.47.139.453.392zm-2.651-.414a.622.622 0 01-.448.2l-.343.351.055.384c.149.009.263.1.288.256.037.237-.148.53-.414.65-.267.12-.505.016-.53-.226-.017-.16.062-.339.193-.473l-.046-.388-.394-.022c-.128.129-.3.211-.45.201-.222-.013-.309-.22-.198-.457.109-.232.369-.41.585-.401.146.006.238.095.252.224l.388.017.341-.342c-.02-.127.04-.283.168-.41.189-.189.462-.249.615-.134.155.117.13.372-.062.57zM2.369 5.28c-.148.045-.271.018-.331-.058l-.376.114-.22.329c.057.08.047.208-.041.341-.134.202-.391.335-.571.295-.178-.04-.209-.233-.074-.429a.725.725 0 01.366-.27l.222-.324-.148-.205c-.131.04-.25.024-.305-.054-.079-.113.011-.314.199-.449.188-.134.406-.156.491-.049.058.073.04.188-.036.298l.153.199.369-.113a.66.66 0 01.346-.255c.213-.066.38.018.372.19-.009.175-.195.374-.416.44zm.745-1.919c-.101-.03-.14-.11-.115-.204l-.252-.074-.321.182a.518.518 0 01-.244.269c-.19.108-.386.101-.436-.014-.05-.112.06-.286.243-.389.123-.069.25-.091.336-.065l.317-.178.071-.244c-.087-.023-.129-.091-.102-.182.04-.134.217-.27.397-.307.181-.036.3.041.265.175-.024.091-.113.185-.225.248l-.066.244.251.07a.494.494 0 01.349-.067c.151.041.173.195.044.344-.13.152-.361.238-.512.192zm1.788-1.398c-.03-.075.011-.17.098-.249l-.078-.187-.31.028a.593.593 0 01-.329.143c-.176.015-.27-.079-.211-.208.058-.127.243-.242.415-.258.116-.011.198.025.224.088l.307-.028.229-.205c-.028-.063.002-.147.089-.225.129-.114.338-.17.469-.126.133.045.138.177.007.296a.593.593 0 01-.328.143l-.231.208.083.184c.116-.01.213.024.247.098.052.112-.06.272-.251.355-.192.084-.385.058-.43-.057zm2.191-.531a.486.486 0 01.284-.211l.119-.234-.22-.121c-.122.039-.25.039-.332-.006-.121-.068-.096-.209.053-.316.148-.107.366-.142.489-.079.084.043.104.121.063.201l.223.117.341-.109c.04-.081.139-.159.271-.201.197-.063.395-.023.442.091.048.116-.077.264-.281.328a.495.495 0 01-.357-.007l-.346.11-.116.236c.084.047.116.132.071.227-.069.144-.288.254-.485.245-.195-.008-.292-.131-.219-.271zm1.952.556a.625.625 0 01.415-.078l.327-.195-.039-.253c-.129-.021-.223-.088-.236-.182-.019-.138.142-.284.362-.328.221-.044.423.03.45.168.019.094-.048.193-.164.262l.047.253.377.062a.668.668 0 01.432-.081c.228.036.344.194.255.353-.09.162-.354.26-.585.218-.153-.028-.251-.11-.27-.208l-.38-.067-.331.199c.014.098-.05.209-.18.288-.196.118-.464.117-.594 0-.128-.114-.076-.298.114-.411zm.857 1.7c.175-.006.323.06.399.164l.466-.015.247-.304c-.08-.102-.081-.233.013-.346.138-.168.433-.237.666-.155.236.083.322.293.184.468-.093.119-.263.19-.438.196l-.247.311.239.307c.18-.004.356.062.455.187.151.19.066.442-.195.559-.261.118-.588.051-.728-.144a.319.319 0 01.015-.398l-.229-.312-.475.012a.596.596 0 01-.441.197c-.269.006-.465-.156-.441-.357.024-.196.251-.36.51-.37z" />
    <g fill-rule="nonzero">
        <path fill="#4D4D4D"
            d="M15.004 3.922h1.212v.424c.184-.158.387-.286.609-.383.222-.099.508-.147.855-.147.36 0 .65.066.874.199.222.13.386.307.49.527.103.219.156.464.156.735v3.43h-1.212V5.344c0-.169-.044-.298-.132-.388a.698.698 0 00-.325-.183 1.592 1.592 0 00-.385-.048 1.21 1.21 0 00-.432.08.904.904 0 00-.357.236.56.56 0 00-.141.392v3.274h-1.212V3.922zm5.425 3.342V5.353c0-.443.156-.809.469-1.098.314-.29.82-.435 1.518-.435.137 0 .284.015.442.047.16.031.309.072.449.122V1.958h1.212v6.749h-.82l-.129-.282a2.119 2.119 0 01-1.239.384c-.648 0-1.125-.137-1.437-.412-.31-.274-.465-.653-.465-1.133zm2.878.503V4.831a1.887 1.887 0 00-.789-.164c-.276 0-.491.049-.645.146-.155.099-.233.269-.233.512v1.956c0 .244.073.418.216.521.145.105.35.157.618.157.165 0 .323-.019.473-.054.147-.036.267-.082.36-.138zm2.998.94L26.144 7.7l2.437-2.195c.231-.209.411-.393.538-.554a1.57 1.57 0 00.271-.474c.052-.155.078-.327.078-.514 0-.306-.078-.541-.232-.705-.155-.166-.416-.248-.784-.248-.421 0-.721.092-.896.279-.174.189-.263.52-.263.999h-1.357c0-.784.187-1.359.562-1.727.376-.366 1.008-.549 1.896-.549.564 0 1.019.087 1.362.26.346.174.596.408.756.7.158.292.239.62.239.982 0 .483-.117.905-.348 1.263-.231.358-.572.729-1.021 1.11l-1.594 1.369h2.85v1.011h-4.333z" />
        <path fill="#305DB8"
            d="M31.488 4.01h.709l2.441 3.221V4.01h.839v4.697h-.709l-2.431-3.173v3.173h-.849V4.01zm4.989 3.628V6.304c0-.348.132-.616.396-.805.264-.189.618-.283 1.061-.283.527 0 .901.101 1.122.302.222.202.333.474.333.818v.827h-2.047v.558c0 .2.053.328.157.38.103.052.258.078.464.078.246 0 .411-.035.495-.104.084-.069.126-.208.126-.419h.802c0 .423-.119.715-.357.879-.238.163-.598.245-1.082.245-.278 0-.529-.034-.751-.104a1.013 1.013 0 01-.526-.352c-.129-.165-.193-.394-.193-.686zm2.094-1.003v-.4c0-.129-.027-.221-.082-.28a.373.373 0 00-.219-.11 1.747 1.747 0 00-.313-.024c-.175 0-.32.026-.438.078-.118.051-.177.168-.177.351v.385h1.229zm1.824.967V5.839h-.452v-.551h.477l.079-1.097h.76v1.097h.812v.551h-.812v1.7c0 .212.047.359.139.441.093.082.269.122.53.122h.165l-.031.643h-.236c-.343 0-.62-.034-.831-.102a.78.78 0 01-.458-.351c-.095-.167-.142-.397-.142-.69zm2.074-2.314h.808l.611 2.448.717-2.448h.703l.738 2.48.569-2.48h.805l-.91 3.419h-.846l-.7-2.358-.728 2.358h-.822l-.945-3.419zm6.976 3.492c-.54 0-.921-.099-1.146-.299-.225-.2-.338-.469-.338-.808V6.327c0-.349.131-.62.39-.817.26-.197.625-.294 1.094-.294.466 0 .83.097 1.091.294.261.197.392.468.392.817v1.346c0 .225-.047.42-.141.586a.898.898 0 01-.462.386c-.216.09-.51.135-.88.135zm0-.601a.85.85 0 00.446-.104c.114-.069.171-.19.171-.364V6.288c0-.174-.054-.296-.163-.364-.108-.07-.26-.103-.454-.103-.187 0-.337.033-.45.103-.112.068-.168.19-.168.364v1.423c0 .174.053.295.16.364.105.069.258.104.458.104zm2.386-2.891h.866v.408a.66.66 0 01.268-.237c.129-.068.276-.123.441-.162.165-.039.332-.059.497-.059l-.02.735a3.41 3.41 0 00-.733.128c-.12.036-.221.08-.304.134-.083.052-.133.113-.149.181v2.291h-.866V5.288zm2.652-1.405h.865v2.908l1.353-1.503h.986l-1.286 1.474 1.344 1.945h-.946L55.73 7.125l-.382.391v1.191h-.865V3.883z" />
    </g>
</svg>