<svg xmlns="http://www.w3.org/2000/svg" width="236" height="44" shape-rendering="geometricPrecision" text-rendering="geometricPrecision" image-rendering="optimizeQuality" fill-rule="evenodd" clip-rule="evenodd" viewBox="0 0 25.664 4.785"><path fill="#305DB8" d="M4.897 1.188c.455-.025.856.218.879.57.026.383-.399.719-.928.718-.062 0-.121-.005-.178-.014a.625.625 0 01.082.051c.4.281.455.823.072 1.2-.4.394-1.058.399-1.419.031a.793.793 0 01-.104-.132.83.83 0 01.006.101c0 .524-.458 1.028-1.007 1.069-.531.04-.868-.375-.777-.879a.982.982 0 01.045-.167 1.39 1.39 0 01-.071.085c-.373.403-.911.504-1.163.227-.232-.256-.116-.728.228-1.057.04-.038.081-.073.124-.105a.815.815 0 01-.083.029c-.397.117-.658-.069-.593-.391.06-.297.382-.608.726-.715a.948.948 0 01.12-.029.306.306 0 01-.054-.015C.563 1.681.571 1.415.8 1.177c.218-.228.573-.362.813-.307a.35.35 0 01.079.028.254.254 0 01-.016-.038c-.056-.183.141-.427.437-.556.296-.128.606-.105.7.06a.23.23 0 01.023.065.394.394 0 01.023-.046c.122-.214.459-.381.769-.383.323-.002.52.176.421.408a.437.437 0 01-.047.084.633.633 0 01.061-.039c.306-.179.739-.198.988-.035.268.177.229.499-.115.711a1.071 1.071 0 01-.13.068 1.4 1.4 0 01.091-.009zm-.541 1.168c-.221-.123-.346-.327-.316-.548.03-.225.215-.42.468-.529-.25.033-.496-.019-.64-.152-.145-.134-.146-.316-.031-.476a1.04 1.04 0 01-.625.182C2.982.822 2.84.72 2.816.584c-.056.138-.208.282-.42.375-.23.101-.456.109-.594.04.061.109.029.269-.109.433a1.079 1.079 0 01-.616.349c.17.034.28.153.274.336-.007.211-.165.45-.392.618.238-.093.478-.09.642.029.188.137.235.396.137.668.181-.23.447-.396.727-.433.309-.04.584.083.731.313a.824.824 0 01.301-.716c.235-.202.56-.286.859-.24zm-.448.299a.166.166 0 01.054.185l.156.129.222-.063a.236.236 0 01.167-.153c.128-.036.266.02.308.129.044.111-.03.233-.164.271a.278.278 0 01-.245-.046l-.227.063-.062.206c.06.053.088.136.064.221a.269.269 0 01-.317.176c-.133-.032-.205-.159-.163-.282a.26.26 0 01.179-.164l.066-.202-.154-.133a.236.236 0 01-.22-.041c-.083-.073-.073-.196.019-.276.091-.079.232-.088.317-.02zm-1.254.644a.264.264 0 01-.125.196l-.017.208.184.088a.248.248 0 01.236-.025c.112.052.149.194.078.317-.072.126-.226.181-.339.122a.2.2 0 01-.106-.199l-.185-.093-.203.131a.308.308 0 01-.141.22c-.12.079-.257.051-.303-.059-.044-.107.014-.252.13-.326.077-.049.161-.055.224-.023l.198-.128.022-.208a.157.157 0 01-.089-.168.278.278 0 01.235-.227c.119-.015.209.062.201.174zm-1.178-.184a.272.272 0 01-.198.089l-.153.156.024.171c.067.004.117.044.128.113.017.106-.065.236-.184.29-.118.053-.224.007-.235-.101a.27.27 0 01.086-.21L.923 3.45l-.175-.009a.278.278 0 01-.2.089C.449 3.524.411 3.432.46 3.327c.048-.103.164-.182.26-.179.065.003.106.043.112.1l.172.008.152-.152c-.009-.057.018-.126.074-.183.084-.084.206-.11.274-.059.069.052.058.165-.028.253zm-.423-.768c-.066.02-.121.008-.147-.026l-.167.05-.098.147c.025.035.021.092-.019.152-.059.089-.173.148-.253.13-.079-.017-.093-.103-.033-.19a.314.314 0 01.163-.12l.098-.144-.065-.091c-.059.018-.112.01-.136-.024-.035-.051.005-.14.089-.2.083-.059.18-.069.218-.022.025.033.017.084-.016.133l.068.088.163-.05a.295.295 0 01.155-.113c.094-.029.168.008.165.084-.004.078-.087.166-.185.196zm.331-.853c-.045-.013-.062-.049-.051-.091l-.112-.033-.143.081a.226.226 0 01-.108.12c-.085.048-.172.044-.194-.006-.022-.05.026-.128.108-.174.055-.03.111-.04.15-.028l.14-.079.032-.109c-.039-.01-.058-.04-.045-.081.017-.059.096-.12.176-.136.08-.016.133.018.117.078-.01.04-.05.082-.099.11l-.03.108.112.031c.051-.029.11-.041.155-.029.067.018.077.086.02.153-.058.067-.161.105-.228.085zm.794-.621c-.013-.034.006-.076.044-.111L2.188.679 2.05.691a.27.27 0 01-.146.064C1.825.762 1.784.72 1.81.662c.026-.056.108-.107.184-.115.052-.005.088.012.1.04L2.23.574l.102-.091c-.013-.028.001-.065.04-.1.057-.051.15-.076.208-.056.059.02.061.079.003.132a.267.267 0 01-.145.063l-.103.093.037.082c.051-.005.094.01.11.043.023.05-.027.121-.112.158-.085.037-.171.025-.192-.025zm.975-.237a.21.21 0 01.126-.093l.053-.104-.098-.054c-.054.017-.111.017-.148-.003-.053-.03-.042-.093.024-.14.065-.048.162-.063.217-.035.038.019.046.053.028.089l.099.052L3.606.3c.017-.037.062-.071.12-.09.088-.028.176-.01.197.04.021.052-.035.118-.125.147a.219.219 0 01-.159-.004l-.154.049-.051.105c.037.021.052.059.031.101-.031.064-.128.113-.215.109-.087-.004-.13-.058-.097-.121zm.867.248a.274.274 0 01.185-.035L4.35.762 4.332.65C4.275.641 4.233.611 4.228.569c-.009-.062.063-.126.16-.146.099-.02.189.013.201.075.008.041-.022.086-.073.116l.02.113.168.027a.298.298 0 01.192-.036c.101.016.153.086.113.157-.04.072-.157.116-.26.097-.068-.012-.111-.049-.12-.093L4.461.85l-.148.088c.006.044-.022.093-.08.128-.087.053-.206.052-.264 0-.057-.051-.033-.132.051-.182zm.381.755c.078-.002.144.027.177.073l.207-.007.11-.135c-.035-.045-.036-.103.006-.154.061-.074.193-.105.296-.068.105.037.143.13.082.208a.266.266 0 01-.195.087l-.11.138.106.136A.257.257 0 015.283 2c.067.085.029.197-.087.249-.116.052-.261.023-.323-.064a.141.141 0 01.006-.177l-.102-.139-.211.005a.264.264 0 01-.196.088c-.119.003-.206-.069-.196-.158.011-.088.112-.161.227-.165z"/><g fill-rule="nonzero"><path fill="#4D4D4D" d="M6.668 1.743h.539v.189c.082-.071.172-.127.271-.171a.943.943 0 01.38-.065c.16 0 .289.03.388.088a.53.53 0 01.218.235.752.752 0 01.069.326V3.87h-.538V2.375c0-.075-.02-.133-.059-.172a.29.29 0 00-.145-.081.669.669 0 00-.171-.022.513.513 0 00-.191.036.39.39 0 00-.159.104.249.249 0 00-.063.175V3.87h-.539V1.743zm2.411 1.485v-.849c0-.197.07-.36.209-.488.139-.129.364-.193.675-.193a1.33 1.33 0 01.396.075V.87h.538v3h-.364l-.058-.125a.928.928 0 01-.55.17c-.288 0-.5-.061-.639-.183-.138-.122-.207-.29-.207-.504zm1.28.224V2.147a.794.794 0 00-.146-.049.807.807 0 00-.205-.024.542.542 0 00-.287.065c-.069.044-.103.12-.103.228v.869c0 .109.032.186.096.232a.464.464 0 00.274.069.945.945 0 00.21-.023.615.615 0 00.161-.062zm1.332.418l-.071-.448 1.083-.975c.102-.093.182-.175.239-.246a.69.69 0 00.12-.211.724.724 0 00.035-.229.442.442 0 00-.103-.313c-.069-.074-.185-.11-.349-.11-.187 0-.32.041-.398.124-.077.084-.117.231-.117.444h-.603c0-.349.083-.604.25-.768.167-.163.448-.244.843-.244.25 0 .452.039.605.116a.755.755 0 01.336.311c.07.129.106.275.106.436 0 .215-.052.402-.155.562a2.332 2.332 0 01-.453.493l-.709.608h1.267v.45h-1.926z"/><path fill="#305DB8" d="M13.995 1.782h.315l1.085 1.432V1.782h.373V3.87h-.316l-1.08-1.41v1.41h-.377V1.782zm2.217 1.613v-.593c0-.155.059-.274.176-.358.117-.084.275-.126.472-.126.234 0 .4.045.498.134.099.09.148.211.148.364v.368h-.909v.247c0 .09.023.146.069.169a.477.477 0 00.206.035c.11 0 .183-.015.22-.046.038-.031.056-.093.056-.186h.357c0 .188-.053.317-.159.39-.105.073-.266.109-.48.109-.124 0-.236-.015-.335-.046a.448.448 0 01-.233-.156.481.481 0 01-.086-.305zm.931-.446v-.178c0-.057-.012-.098-.037-.124a.156.156 0 00-.097-.049.732.732 0 00-.139-.011.482.482 0 00-.195.035c-.052.022-.078.075-.078.156v.171h.546zm.81.43v-.784h-.201V2.35h.212L18 1.863h.337v.487h.361v.245h-.361v.756c0 .094.021.159.062.196.041.036.119.054.236.054h.073l-.014.286h-.105c-.152 0-.275-.015-.369-.046a.348.348 0 01-.204-.156.623.623 0 01-.063-.306zm.922-1.029h.359l.272 1.088.318-1.088h.313l.328 1.103.253-1.103h.358l-.405 1.52h-.376l-.311-1.048-.324 1.048h-.365l-.42-1.52zm3.101 1.552c-.24 0-.41-.044-.51-.133a.456.456 0 01-.15-.359v-.598a.43.43 0 01.173-.363c.116-.087.278-.131.487-.131.207 0 .368.044.484.131a.426.426 0 01.175.363v.598a.52.52 0 01-.063.261.402.402 0 01-.205.171c-.097.04-.227.06-.391.06zm0-.267a.375.375 0 00.198-.046c.051-.031.076-.085.076-.162v-.632c0-.078-.024-.132-.073-.162a.367.367 0 00-.201-.046.375.375 0 00-.2.046c-.05.03-.075.084-.075.162v.632c0 .077.023.131.071.162a.371.371 0 00.204.046zm1.06-1.285h.385v.181a.297.297 0 01.119-.105.868.868 0 01.196-.072.98.98 0 01.221-.026l-.009.327a1.45 1.45 0 00-.326.057.495.495 0 00-.135.059c-.037.023-.059.05-.066.081V3.87h-.385V2.35zm1.179-.624h.384v1.292l.601-.668h.439l-.572.656.597.864h-.42l-.475-.703-.17.174v.529h-.384V1.726z"/></g></svg>