<svg xmlns="http://www.w3.org/2000/svg" width="512" height="424" shape-rendering="geometricPrecision"
    text-rendering="geometricPrecision" image-rendering="optimizeQuality" fill-rule="evenodd" clip-rule="evenodd"
    viewBox="0 0 89.003 73.715">
    <path
        d="M75.45 18.302c7.007-.385 13.173 3.366 13.536 8.784.395 5.902-6.15 11.074-14.297 11.054a17.869 17.869 0 01-2.736-.213c.433.237.853.498 1.259.783 6.156 4.331 7.006 12.689 1.111 18.494-6.16 6.066-16.309 6.138-21.865.472a11.973 11.973 0 01-1.604-2.028c.061.503.094 1.022.094 1.555.006 8.077-7.062 15.829-15.517 16.471-8.172.62-13.364-5.786-11.974-13.547.156-.874.392-1.731.697-2.565-.341.438-.706.871-1.099 1.297-5.735 6.22-14.025 7.775-17.91 3.498-3.579-3.941-1.79-11.206 3.512-16.275a19.811 19.811 0 011.918-1.615c-.424.165-.853.314-1.288.443C3.181 46.717-.848 43.843.152 38.887c.924-4.581 5.884-9.372 11.186-11.02a13.565 13.565 0 011.851-.439 6.54 6.54 0 01-.836-.23c-3.683-1.294-3.551-5.4-.032-9.072 3.36-3.507 8.835-5.577 12.524-4.727.452.104.86.249 1.224.428a3.246 3.246 0 01-.246-.584c-.87-2.818 2.174-6.579 6.737-8.56 4.55-1.975 9.33-1.624 10.771.928.179.316.298.652.363 1.002.096-.234.212-.47.347-.707C45.931 2.599 51.123.025 55.899 0c4.975-.026 7.999 2.707 6.484 6.286a6.81 6.81 0 01-.731 1.291c.298-.208.611-.41.941-.602 4.71-2.753 11.38-3.045 15.215-.529 4.141 2.717 3.529 7.686-1.764 10.95-.641.395-1.312.741-2.003 1.039.464-.062.934-.107 1.409-.133zm-8.343 18c-3.4-1.894-5.326-5.043-4.865-8.456.467-3.453 3.312-6.466 7.213-8.149-3.852.512-7.647-.289-9.863-2.336-2.238-2.067-2.245-4.874-.478-7.336-2.607 1.83-6.23 2.979-9.634 2.808-3.537-.177-5.728-1.74-6.097-3.836-.865 2.125-3.198 4.341-6.471 5.775-3.548 1.554-7.021 1.674-9.147.615.934 1.687.445 4.151-1.69 6.668-2.412 2.843-6.132 4.845-9.487 5.386 2.623.527 4.317 2.352 4.224 5.165-.107 3.26-2.545 6.933-6.038 9.524 3.663-1.432 7.368-1.383 9.884.446 2.902 2.109 3.631 6.111 2.122 10.303 2.781-3.555 6.889-6.104 11.193-6.67 4.771-.629 9.003 1.273 11.257 4.814-.452-3.939 1.2-8.075 4.645-11.032 3.617-3.104 8.63-4.401 13.232-3.689zm-6.902 4.599c.895.719 1.172 1.816.826 2.853l2.412 1.984 3.413-.962c.318-1.068 1.264-1.987 2.581-2.36 1.97-.557 4.089.309 4.742 1.977.671 1.712-.456 3.601-2.527 4.175-1.384.384-2.809.07-3.767-.704l-3.5.975-.964 3.171c.936.822 1.365 2.1.984 3.4-.578 1.977-2.778 3.206-4.869 2.713-2.055-.486-3.164-2.443-2.523-4.342.423-1.25 1.502-2.176 2.762-2.527l1.017-3.111-2.379-2.051c-1.21.341-2.515.135-3.385-.634-1.273-1.124-1.125-3.021.293-4.25 1.404-1.217 3.573-1.36 4.884-.307zm-19.311 9.926c-.082 1.187-.85 2.321-1.926 3.009l-.26 3.219 2.83 1.349c1.114-.723 2.493-.915 3.634-.385 1.731.804 2.291 2.981 1.199 4.882-1.113 1.937-3.476 2.789-5.226 1.886-1.152-.595-1.726-1.796-1.633-3.075l-2.842-1.428-3.125 2.023c-.143 1.268-.931 2.583-2.171 3.389-1.86 1.21-3.964.787-4.671-.909-.689-1.653.217-3.887 1.998-5.023 1.188-.758 2.488-.854 3.447-.365l3.059-1.961.334-3.205c-.953-.447-1.511-1.411-1.375-2.589.199-1.721 1.816-3.273 3.628-3.505 1.826-.233 3.221.953 3.1 2.688zm-18.15-2.834c-.892.919-2.068 1.408-3.063 1.368l-2.353 2.405.378 2.624c1.021.061 1.804.69 1.972 1.755.255 1.622-1.011 3.632-2.836 4.454-1.827.822-3.455.11-3.629-1.552-.114-1.091.429-2.316 1.323-3.236l-.313-2.657-2.697-.15c-.88.88-2.056 1.441-3.085 1.378-1.521-.094-2.115-1.508-1.354-3.131.744-1.589 2.525-2.807 4.005-2.748 1 .04 1.628.65 1.725 1.535l2.658.12 2.332-2.345c-.132-.868.273-1.937 1.149-2.811 1.295-1.291 3.166-1.701 4.212-.915 1.067.801.892 2.549-.424 3.906zm-6.525-11.838c-1.012.306-1.855.122-2.265-.4l-2.571.779-1.509 2.255c.389.548.319 1.425-.284 2.337-.912 1.381-2.676 2.29-3.91 2.014-1.218-.273-1.43-1.595-.501-2.935.613-.886 1.576-1.566 2.502-1.847l1.523-2.223-1.015-1.399c-.899.274-1.713.16-2.085-.369-.547-.777.071-2.151 1.363-3.076 1.282-.919 2.777-1.072 3.359-.336.396.5.273 1.286-.248 2.041l1.047 1.361 2.525-.77c.513-.771 1.399-1.453 2.375-1.751 1.458-.446 2.598.126 2.542 1.301-.057 1.199-1.334 2.561-2.848 3.018zm5.1-13.139c-.688-.208-.954-.76-.784-1.403l-1.723-.506-2.201 1.246c-.191.642-.805 1.353-1.672 1.845-1.298.737-2.64.69-2.987-.094-.341-.771.411-1.96 1.67-2.668.841-.473 1.707-.618 2.301-.441l2.166-1.221.486-1.668c-.593-.163-.884-.623-.696-1.247.275-.917 1.488-1.851 2.717-2.101 1.237-.251 2.052.278 1.812 1.196-.163.625-.771 1.267-1.54 1.7l-.453 1.67 1.723.479c.788-.447 1.698-.643 2.385-.458 1.037.281 1.184 1.331.306 2.354-.889 1.037-2.472 1.63-3.51 1.317zm12.243-9.574c-.207-.518.08-1.168.673-1.706l-.531-1.278-2.122.187c-.589.522-1.443.914-2.256.984-1.206.103-1.846-.541-1.444-1.425.397-.871 1.662-1.658 2.84-1.771.795-.076 1.359.171 1.536.607l2.097-.196 1.574-1.403c-.195-.427.01-1.008.607-1.537.884-.784 2.313-1.169 3.211-.864.911.31.942 1.215.05 2.024-.602.547-1.466.904-2.244.978l-1.582 1.427.565 1.262c.794-.068 1.46.165 1.694.67.355.765-.413 1.86-1.723 2.433-1.311.574-2.632.392-2.945-.392zm15.007-3.64c.33-.637 1.088-1.172 1.944-1.444l.816-1.601-1.511-.825c-.833.265-1.709.267-2.271-.046-.828-.462-.658-1.429.361-2.164 1.012-.729 2.504-.971 3.351-.537.576.295.712.827.431 1.375l1.528.799 2.333-.744c.27-.557.954-1.09 1.855-1.378 1.348-.431 2.701-.159 3.027.621.331.795-.529 1.809-1.923 2.25-.932.296-1.853.255-2.443-.049l-2.373.754-.794 1.618c.578.321.798.9.484 1.551-.473.983-1.968 1.742-3.319 1.681-1.335-.06-1.996-.899-1.496-1.861zm13.365 3.812c.868-.517 1.949-.698 2.842-.537l2.236-1.336-.268-1.729c-.883-.145-1.524-.604-1.615-1.249-.133-.946.975-1.943 2.48-2.245 1.514-.304 2.897.202 3.083 1.148.128.644-.332 1.325-1.123 1.797l.317 1.73 2.584.43c.813-.489 1.929-.725 2.96-.56 1.558.251 2.351 1.33 1.742 2.421-.617 1.107-2.426 1.778-4.007 1.49-1.046-.191-1.714-.754-1.845-1.425l-2.602-.461-2.27 1.365c.097.672-.337 1.43-1.232 1.97-1.342.81-3.172.807-4.067.005-.876-.785-.515-2.04.785-2.814zm5.864 11.64c1.2-.043 2.216.407 2.731 1.118l3.192-.102 1.693-2.08c-.548-.695-.552-1.594.088-2.37.945-1.147 2.969-1.62 4.559-1.06 1.621.571 2.205 2.004 1.263 3.205-.638.814-1.804 1.3-2.998 1.342l-1.691 2.13 1.632 2.103c1.232-.026 2.44.425 3.119 1.278 1.034 1.298.447 3.026-1.336 3.83-1.786.804-4.028.349-4.985-.988-.627-.878-.54-1.914.101-2.728l-1.57-2.134-3.252.08c-.642.781-1.776 1.325-3.019 1.351-1.839.038-3.179-1.067-3.014-2.442.161-1.347 1.714-2.47 3.487-2.533z" />
</svg>